HIERARCHY
ROOT Hips
{
	OFFSET -0.001795 -0.223333 0.028219
	CHANNELS 6 Xposition Yposition Zposition Zrotation Yrotation Xrotation 
	JOINT LeftUpLeg
	{
		OFFSET 0.069520 -0.091406 -0.006815
		CHANNELS 3 Zrotation Yrotation Xrotation
		JOINT LeftLeg
		{
			OFFSET 0.034277 -0.375199 -0.004496
			CHANNELS 3 Zrotation Yrotation Xrotation
			JOINT LeftFoot
			{
				OFFSET -0.013596 -0.397961 -0.043693
				CHANNELS 3 Zrotation Yrotation Xrotation
				JOINT LeftToe
				{
					OFFSET 0.026358 -0.055791 0.119288
					CHANNELS 3 Zrotation Yrotation Xrotation
					End Site
					{
						OFFSET 0.000000 0.000000 0.000000
					}
				}
			}
		}
	}
	JOINT RightUpLeg
	{
		OFFSET -0.067670 -0.090522 -0.004320
		CHANNELS 3 Zrotation Yrotation Xrotation
		JOINT RightLeg
		{
			OFFSET -0.038290 -0.382569 -0.008850
			CHANNELS 3 Zrotation Yrotation Xrotation
			JOINT RightFoot
			{
				OFFSET 0.015774 -0.398415 -0.042312
				CHANNELS 3 Zrotation Yrotation Xrotation
				JOINT RightToe
				{
					OFFSET -0.025372 -0.048144 0.123348
					CHANNELS 3 Zrotation Yrotation Xrotation
					End Site
					{
						OFFSET 0.000000 0.000000 0.000000
					}
				}
			}
		}
	}
	JOINT Spine
	{
		OFFSET -0.002533 0.108963 -0.026696
		CHANNELS 3 Zrotation Yrotation Xrotation
		JOINT Spine1
		{
			OFFSET 0.005487 0.135180 0.001092
			CHANNELS 3 Zrotation Yrotation Xrotation
			JOINT Spine2
			{
				OFFSET 0.001457 0.052922 0.025425
				CHANNELS 3 Zrotation Yrotation Xrotation
				JOINT Neck
				{
					OFFSET -0.002778 0.213870 -0.042857
					CHANNELS 3 Zrotation Yrotation Xrotation
					JOINT Head
					{
						OFFSET 0.005152 0.064970 0.051349
						CHANNELS 3 Zrotation Yrotation Xrotation
						End Site
						{
							OFFSET 0.000000 0.000000 0.000000
						}
					}
				}
				JOINT LeftShoulder
				{
					OFFSET 0.078845 0.121749 -0.034090
					CHANNELS 3 Zrotation Yrotation Xrotation
					JOINT LeftArm
					{
						OFFSET 0.090977 0.030469 -0.008868
						CHANNELS 3 Zrotation Yrotation Xrotation
						JOINT LeftForeArm
						{
							OFFSET 0.259612 -0.012772 -0.027456
							CHANNELS 3 Zrotation Yrotation Xrotation
							JOINT LeftHand
							{
								OFFSET 0.249234 0.008986 -0.001171
								CHANNELS 3 Zrotation Yrotation Xrotation
								End Site
								{
									OFFSET 0.000000 0.000000 0.000000
								}
							}
						}
					}
				}
				JOINT RightShoulder
				{
					OFFSET -0.081759 0.118833 -0.038615
					CHANNELS 3 Zrotation Yrotation Xrotation
					JOINT RightArm
					{
						OFFSET -0.096012 0.032551 -0.009143
						CHANNELS 3 Zrotation Yrotation Xrotation
						JOINT RightForeArm
						{
							OFFSET -0.253742 -0.013329 -0.021401
							CHANNELS 3 Zrotation Yrotation Xrotation
							JOINT RightHand
							{
								OFFSET -0.255298 0.007772 -0.005559
								CHANNELS 3 Zrotation Yrotation Xrotation
								End Site
								{
									OFFSET 0.000000 0.000000 0.000000
								}
							}
						}
					}
				}
			}
		}
	}
}
MOTION
Frames: 16
Frame Time: 0.050000
0.000000 0.938369 0.000000 -1.178951 -11.146695 4.657884 4.233912 -0.043817 -0.781850 0.185135 0.271878 -7.551817 2.171100 6.324694 8.718427 0.000000 0.000000 0.000000 -3.988500 0.446757 -3.629202 -0.807706 0.059925 -0.179408 -4.108776 -13.877177 12.162104 0.000000 0.000000 0.000000 4.889101 -0.144620 0.559790 -3.880282 1.761808 -1.984679 -1.104136 3.393459 2.715173 5.600288 -2.700434 -13.642944 0.000000 0.000000 0.000000 -23.354845 -3.077967 0.161498 -47.579578 -5.527293 -3.534766 -6.509802 -22.350059 2.202043 0.000000 0.000000 0.000000 20.305056 -3.706245 -4.632586 50.501392 -1.283155 -5.054284 7.976169 28.186026 2.606738 0.000000 0.000000 0.000000 
-0.001236 0.937422 0.000940 -1.326430 -11.387240 5.097771 4.399335 -0.020979 -0.379306 0.260906 0.333646 -8.856685 2.245162 6.473356 8.946228 0.000000 0.000000 0.000000 -3.613859 0.492163 -4.393999 -1.123071 0.118466 0.459312 -4.112181 -13.809311 11.708328 0.000000 0.000000 0.000000 5.174642 -0.116009 0.106945 -3.762086 1.719817 -1.692763 -2.096314 3.651573 2.214848 6.970015 -3.324140 -14.929397 0.000000 0.000000 0.000000 -22.889913 -2.910270 -0.041731 -48.423645 -5.745570 -3.433167 -6.874260 -22.507436 2.278328 0.000000 0.000000 0.000000 20.458201 -4.395396 -4.955130 51.714636 -2.317621 -5.599677 8.301857 29.090815 2.793620 0.000000 0.000000 0.000000 
-0.002374 0.936912 0.001723 -0.871388 -10.463178 4.735032 4.225070 -0.065664 -1.018625 -0.055728 0.276674 -7.349789 1.913549 5.838446 8.257513 0.000000 0.000000 0.000000 -3.807799 0.479085 -4.239040 -1.368025 0.181498 1.165765 -4.671190 -14.628364 11.408804 0.000000 0.000000 0.000000 4.947713 -0.154406 0.623736 -3.186988 1.416154 -2.753096 -2.504150 3.532723 2.782263 6.573620 -3.123207 -14.534097 0.000000 0.000000 0.000000 -22.912814 -3.670923 0.301098 -48.636586 -6.015631 -3.361634 -6.618606 -21.163783 2.072322 0.000000 0.000000 0.000000 20.643320 -4.183060 -4.751732 52.519804 -3.088105 -6.106498 8.234360 30.191073 2.939718 0.000000 0.000000 0.000000 
-0.003528 0.935939 0.002356 -0.730887 -10.388639 5.082133 4.707358 -0.084769 -1.408229 -1.053527 0.338769 -7.305540 1.893479 5.771362 8.063932 0.000000 0.000000 0.000000 -4.078408 0.536227 -4.965376 -1.027213 0.187662 1.879773 -4.851796 -14.844075 10.930526 0.000000 0.000000 0.000000 4.975261 -0.128544 0.253512 -3.185176 1.446517 -1.960205 -2.769414 3.603288 1.971281 6.894378 -3.316825 -14.209114 0.000000 0.000000 0.000000 -23.044018 -3.734150 0.220121 -48.755178 -6.322328 -3.145860 -6.639712 -21.232659 2.067198 0.000000 0.000000 0.000000 20.353890 -4.362212 -4.759648 53.223631 -3.553208 -6.333270 9.893853 32.265048 3.618188 0.000000 0.000000 0.000000 
-0.004727 0.935935 0.002600 -0.587593 -9.907292 4.715723 4.384534 -0.107504 -1.716510 -0.548013 0.261221 -6.179238 1.757875 5.483029 7.655171 0.000000 0.000000 0.000000 -4.148556 0.506853 -4.594099 -0.945072 0.191935 2.103086 -5.101113 -15.221380 10.847918 0.000000 0.000000 0.000000 5.181177 -0.170625 0.743590 -3.239858 1.479504 -1.827286 -2.776778 3.570061 1.808007 6.324994 -2.949013 -14.161702 0.000000 0.000000 0.000000 -23.240829 -4.052103 0.311252 -48.530261 -6.535402 -3.017471 -6.916269 -20.888019 2.070351 0.000000 0.000000 0.000000 20.165922 -4.624846 -4.811074 53.495387 -3.411721 -6.310221 11.822170 35.903353 4.692506 0.000000 0.000000 0.000000 
-0.005749 0.935835 0.002366 -0.513276 -9.452945 4.637007 4.228623 -0.122885 -1.878004 -0.225516 0.226328 -5.907749 1.578353 5.168548 7.550519 0.000000 0.000000 0.000000 -4.426647 0.506228 -4.556649 -0.376976 0.142829 2.308231 -5.341154 -15.595903 10.790105 0.000000 0.000000 0.000000 5.122574 -0.203845 1.143046 -3.121391 1.418700 -2.046137 -2.712886 3.664046 2.154275 6.161023 -2.777038 -14.576950 0.000000 0.000000 0.000000 -23.452583 -4.090417 0.244348 -48.679591 -6.819881 -2.924365 -7.086432 -20.807174 2.086453 0.000000 0.000000 0.000000 20.129371 -4.290141 -4.540238 54.201977 -3.668889 -6.565175 14.717764 40.860661 6.526532 0.000000 0.000000 0.000000 
-0.006617 0.935958 0.001621 -0.523358 -9.220554 4.628063 4.102148 -0.171227 -2.664358 0.174106 0.143421 -4.622470 1.577159 5.109503 7.220495 0.000000 0.000000 0.000000 -4.135477 0.499081 -4.560684 -0.716603 0.180965 2.343001 -5.451643 -15.786192 10.838784 0.000000 0.000000 0.000000 5.206001 -0.249289 1.638227 -3.207063 1.463870 -1.908564 -2.622225 3.366682 1.971993 5.840414 -2.569946 -14.731588 0.000000 0.000000 0.000000 -23.251285 -4.171794 0.351295 -49.040492 -6.870941 -2.918252 -7.277509 -20.887832 2.134481 0.000000 0.000000 0.000000 20.207053 -4.346240 -4.633331 54.933773 -3.614408 -6.619544 18.450961 47.583187 9.364824 0.000000 0.000000 0.000000 
-0.007357 0.936198 0.000591 -0.491093 -9.009950 4.563112 4.335799 -0.196485 -3.229208 -0.168844 0.138042 -3.670392 1.513193 4.977667 7.081910 0.000000 0.000000 0.000000 -3.902952 0.513342 -4.864054 -1.041726 0.251545 2.968727 -5.580918 -16.009575 10.851784 0.000000 0.000000 0.000000 5.151595 -0.283211 2.060206 -3.171826 1.453019 -1.786965 -2.738720 3.325376 2.196461 6.077517 -2.661443 -15.108239 0.000000 0.000000 0.000000 -22.275477 -4.517982 0.578684 -49.451043 -7.235081 -2.800751 -7.960196 -21.261801 2.299207 0.000000 0.000000 0.000000 20.390961 -3.730090 -4.293653 55.365275 -2.206662 -6.070223 24.203821 54.379799 13.987029 0.000000 0.000000 0.000000 
-0.007988 0.936720 -0.000565 -0.742303 -9.079703 4.726074 4.539714 -0.213027 -3.669147 0.047407 0.101672 -3.227231 1.572773 5.091674 7.142382 0.000000 0.000000 0.000000 -3.367959 0.506922 -4.863349 -1.429896 0.271692 2.562898 -5.481901 -15.892284 11.113147 0.000000 0.000000 0.000000 5.355222 -0.334087 2.540259 -3.286264 1.501322 -1.881639 -2.698893 3.614430 2.432836 6.357907 -2.787950 -15.321553 0.000000 0.000000 0.000000 -21.484185 -4.820891 0.731818 -50.210473 -7.386309 -2.777849 -8.175917 -21.995093 2.418647 0.000000 0.000000 0.000000 20.402047 -3.091513 -3.877868 55.100268 0.172539 -4.996610 32.396385 60.223693 20.832141 0.000000 0.000000 0.000000 
-0.008428 0.936913 -0.001779 -0.912554 -9.523078 4.705416 4.698502 -0.221938 -4.085060 0.116080 0.064060 -2.375307 1.824741 5.494320 7.024548 0.000000 0.000000 0.000000 -3.012799 0.530650 -5.221524 -1.736703 0.334320 3.026067 -5.278662 -15.565501 11.044701 0.000000 0.000000 0.000000 5.801002 -0.371067 2.789372 -3.545157 1.625079 -1.738855 -3.152865 4.113932 2.731307 7.032136 -3.133501 -15.598785 0.000000 0.000000 0.000000 -20.671837 -5.196103 0.889234 -50.675743 -7.692002 -2.678128 -7.894906 -22.566839 2.417139 0.000000 0.000000 0.000000 20.277191 -1.657995 -2.967709 54.990489 4.257654 -3.190463 39.532252 64.920391 27.843556 0.000000 0.000000 0.000000 
-0.008436 0.936596 -0.003274 -0.930426 -9.771857 4.633092 4.952915 -0.230501 -4.585611 -0.299603 0.079012 -1.424264 1.985118 5.721154 6.764711 0.000000 0.000000 0.000000 -2.958135 0.542813 -5.381920 -1.815812 0.355444 3.218296 -5.189178 -15.393406 10.869219 0.000000 0.000000 0.000000 5.873538 -0.436694 3.517153 -4.070386 1.855826 -1.970317 -3.018782 5.060818 2.907814 7.259185 -3.218235 -15.521320 0.000000 0.000000 0.000000 -20.239744 -5.981224 1.135147 -50.881777 -7.772006 -2.625278 -7.501699 -23.357288 2.394371 0.000000 0.000000 0.000000 20.270142 -0.441427 -2.081864 54.553628 9.110240 -1.032144 45.091920 67.816386 33.792586 0.000000 0.000000 0.000000 
-0.007981 0.936558 -0.005328 -0.987227 -9.814722 4.657388 4.939612 -0.268147 -5.483904 -0.179440 0.026688 -0.084083 2.084351 5.849796 6.515705 0.000000 0.000000 0.000000 -2.714088 0.572481 -5.780367 -2.160273 0.424979 3.644842 -5.184147 -15.402346 10.882094 0.000000 0.000000 0.000000 6.242003 -0.526597 4.330024 -4.706015 2.165679 -1.642137 -3.040895 5.719157 2.950422 7.769134 -3.433047 -15.758723 0.000000 0.000000 0.000000 -20.225566 -6.261103 1.108471 -50.876748 -8.460083 -2.303974 -6.863861 -24.228572 2.322736 0.000000 0.000000 0.000000 19.823811 1.254117 -0.923869 54.189116 14.921975 1.573443 43.861308 70.219325 34.683703 0.000000 0.000000 0.000000 
-0.007126 0.936199 -0.007944 -1.085835 -9.814471 4.564484 5.280711 -0.278346 -6.264988 -0.636946 0.056475 1.202909 2.140641 5.892861 6.192616 0.000000 0.000000 0.000000 -2.721701 0.603491 -6.170581 -1.998982 0.446356 4.241135 -5.216296 -15.446936 10.793493 0.000000 0.000000 0.000000 6.217125 -0.633008 5.571700 -5.155692 2.371628 -1.707576 -2.741898 6.943537 3.229936 8.504275 -3.716032 -16.144351 0.000000 0.000000 0.000000 -20.274393 -6.934020 1.157124 -51.365615 -8.900508 -2.091422 -6.597439 -25.420653 2.326501 0.000000 0.000000 0.000000 19.475083 3.195573 0.490107 53.650155 20.646038 4.097670 37.066548 71.384415 30.723244 0.000000 0.000000 0.000000 
-0.006121 0.936209 -0.010747 -1.401039 -9.347090 4.519577 5.717062 -0.295212 -7.458056 -0.805756 0.046680 3.017586 2.009776 5.603474 5.836737 0.000000 0.000000 0.000000 -2.510697 0.601902 -6.176169 -1.747403 0.413609 4.219549 -5.384699 -15.763492 11.067740 0.000000 0.000000 0.000000 6.443707 -0.745673 6.681180 -5.558238 2.567352 -1.605681 -2.353404 7.773812 3.338803 8.774921 -3.683602 -16.728273 0.000000 0.000000 0.000000 -20.289385 -7.136609 0.982742 -51.644303 -9.367826 -1.844456 -6.357642 -26.476319 2.313399 0.000000 0.000000 0.000000 18.483730 4.722356 1.617568 53.216227 26.270495 6.662248 27.867924 70.994105 24.040800 0.000000 0.000000 0.000000 
-0.004956 0.936457 -0.013020 -1.474100 -8.752914 4.662974 5.904841 -0.325589 -8.565573 -1.020452 0.060500 4.228840 1.775771 5.186278 5.779647 0.000000 0.000000 0.000000 -2.751259 0.619232 -6.398921 -1.173480 0.341513 4.228128 -5.630298 -16.212501 11.409626 0.000000 0.000000 0.000000 6.565025 -0.819630 7.337443 -5.872258 2.725071 -1.424923 -2.305574 8.986251 3.539420 9.120132 -3.639893 -17.318980 0.000000 0.000000 0.000000 -19.773880 -7.633824 0.870652 -52.160775 -9.520316 -1.732463 -5.676911 -28.079145 2.189429 0.000000 0.000000 0.000000 17.907432 6.175566 2.801872 52.939475 30.171536 8.444534 20.795260 70.543390 19.262281 0.000000 0.000000 0.000000 
-0.003689 0.936583 -0.014648 -1.837186 -8.039592 4.818301 6.538437 -0.317765 -9.819489 -1.477357 0.117873 5.791029 1.505676 4.673251 5.569998 0.000000 0.000000 0.000000 -2.881648 0.636892 -6.641150 -0.236019 0.232269 4.421278 -5.923512 -16.732875 11.806869 0.000000 0.000000 0.000000 6.658666 -0.899955 8.061564 -6.280866 2.882253 -1.945313 -1.717008 9.852443 4.417021 9.346763 -3.525907 -18.190317 0.000000 0.000000 0.000000 -19.643418 -8.623098 1.146830 -52.604041 -9.764327 -1.662316 -3.906097 -30.136701 1.815507 0.000000 0.000000 0.000000 17.988398 7.768900 3.981643 51.739400 34.202936 10.000153 14.770524 70.629711 15.355329 0.000000 0.000000 0.000000 
